<svg width="32" height="32" viewBox="0 0 32 32" fill="none" xmlns="http://www.w3.org/2000/svg">
<path d="M13.294 7.43666L14.097 9.66666C14.989 12.1417 16.938 14.0907 19.413 14.9827L21.643 15.7857C21.844 15.8587 21.844 16.1437 21.643 16.2157L19.413 17.0187C16.938 17.9107 14.989 19.8597 14.097 22.3347L13.294 24.5647C13.221 24.7657 12.936 24.7657 12.864 24.5647L12.061 22.3347C11.169 19.8597 9.22001 17.9107 6.74501 17.0187L4.51501 16.2157C4.31401 16.1427 4.31401 15.8577 4.51501 15.7857L6.74501 14.9827C9.22001 14.0907 11.169 12.1417 12.061 9.66666L12.864 7.43666C12.936 7.23466 13.221 7.23466 13.294 7.43666Z" fill="#0A9F83"/>
<path d="M23.3321 2.07725L23.7391 3.20625C24.1911 4.45925 25.1781 5.44625 26.4311 5.89825L27.5601 6.30525C27.6621 6.34225 27.6621 6.48625 27.5601 6.52325L26.4311 6.93025C25.1781 7.38225 24.1911 8.36925 23.7391 9.62225L23.3321 10.7513C23.2951 10.8533 23.1511 10.8533 23.1141 10.7513L22.7071 9.62225C22.2551 8.36925 21.2681 7.38225 20.0151 6.93025L18.8861 6.52325C18.7841 6.48625 18.7841 6.34225 18.8861 6.30525L20.0151 5.89825C21.2681 5.44625 22.2551 4.45925 22.7071 3.20625L23.1141 2.07725C23.1511 1.97425 23.2961 1.97425 23.3321 2.07725Z" fill="#0A9F83"/>
<path d="M23.3321 21.2503L23.7391 22.3793C24.1911 23.6323 25.1781 24.6193 26.4311 25.0713L27.5601 25.4783C27.6621 25.5153 27.6621 25.6593 27.5601 25.6963L26.4311 26.1033C25.1781 26.5553 24.1911 27.5423 23.7391 28.7953L23.3321 29.9243C23.2951 30.0263 23.1511 30.0263 23.1141 29.9243L22.7071 28.7953C22.2551 27.5423 21.2681 26.5553 20.0151 26.1033L18.8861 25.6963C18.7841 25.6593 18.7841 25.5153 18.8861 25.4783L20.0151 25.0713C21.2681 24.6193 22.2551 23.6323 22.7071 22.3793L23.1141 21.2503C23.1511 21.1483 23.2961 21.1483 23.3321 21.2503Z" fill="#0A9F83"/>
</svg>
